<svg viewBox="0 0 294 313" fill="none" xmlns="http://www.w3.org/2000/svg">
<g clip-path="url(#clip0_1641_1070)">
<path d="M148.39 313C206.508 313 253.621 308.896 253.621 303.833C253.621 298.77 206.508 294.666 148.39 294.666C90.273 294.666 43.1596 298.77 43.1596 303.833C43.1596 308.896 90.273 313 148.39 313Z" fill="#D2C9C9"/>
<path d="M19.9374 178.557C19.9374 178.557 -5.67956 147.073 2.78983 93.6052C2.78983 93.6052 -4.60087 76.8119 12.9782 70.2473C30.5572 63.6826 33.9742 76.3886 34.183 85.4236C34.3917 94.4587 30.2301 96.0686 43.5362 118.517L50.1892 142.847L37.2172 176.725L19.9374 178.557Z" fill="white" stroke="#12100B" stroke-width="1.15065" stroke-miterlimit="10"/>
<path d="M19.9374 178.557C19.9374 178.557 -5.67956 147.073 2.78983 93.6052C2.78983 93.6052 -4.60087 76.8119 12.9782 70.2473C30.5572 63.6826 33.9742 76.3886 34.183 85.4236C34.2386 88.0537 34.3013 95.5898 29.0749 98.2059C16.3464 104.562 -5.76308 110.003 24.0921 149.918L19.9374 178.557Z" fill="#E2E1E2"/>
<path d="M19.9389 178.557C19.9389 178.557 -4.92654 147.205 3.54981 93.737C3.54981 93.737 -3.48595 76.7287 12.9796 70.2473C30.4473 63.3843 33.9756 76.3886 34.1844 85.4237C34.3932 94.4587 30.2316 96.0687 43.5377 118.518L50.1906 142.847L37.2186 176.725L19.9389 178.557Z" stroke="#12100B" stroke-width="1.15065" stroke-miterlimit="10"/>
<path d="M33.5803 83.9455C32.7173 88.3589 25.605 92.4393 22.6612 87.6581C21.6939 86.3465 20.7683 85.0281 19.8149 83.7026C20.5494 85.3527 21.1998 87.0388 21.7635 88.7545C22.0657 90.0376 21.8595 91.3874 21.1878 92.5226C20.5162 93.6578 19.431 94.4905 18.1586 94.8472C15.9107 95.4093 12.4868 94.8889 11.2411 92.5295L8.74974 87.7622C9.10693 89.3093 9.35802 90.8789 9.5013 92.4601C9.45113 92.9152 9.26609 93.345 8.96985 93.6948C8.6736 94.0446 8.27958 94.2985 7.83804 94.424C3.89911 95.5065 2.33328 93.1402 1.92268 89.8093C0.718733 80.0942 4.70639 74.5843 11.0741 71.4824C14.5087 69.9166 18.2375 69.0959 22.014 69.0745C25.1317 69.0745 28.3956 69.8725 30.2607 72.2319C32.8426 75.5142 34.471 79.4488 33.5803 83.9455Z" fill="white"/>
<path d="M34.7901 84.1815C34.5261 85.6013 33.8762 86.9215 32.9111 87.9981C32.0012 89.057 30.848 89.8808 29.5498 90.3992C28.2049 90.9852 26.7059 91.1215 25.2768 90.7878C24.5434 90.6015 23.8626 90.2502 23.2865 89.7607C22.7453 89.2893 22.2928 88.7253 21.9503 88.0953L21.992 88.1508C21.5605 87.4569 21.15 86.7629 20.6976 86.069C20.2453 85.3751 19.7929 84.7158 19.3058 84.0705L20.4054 83.4321C20.9343 84.4313 21.3727 85.4445 21.7972 86.4646C22.013 86.985 22.2148 87.5055 22.4027 88.0467C22.5165 88.3352 22.6072 88.6322 22.6741 88.935C22.742 89.2592 22.7793 89.5891 22.7854 89.9203C22.8022 91.228 22.3837 92.5044 21.5954 93.5496C20.8213 94.6266 19.6978 95.4038 18.415 95.7494C17.2039 96.0383 15.943 96.0501 14.7266 95.7841C13.4755 95.5417 12.3263 94.93 11.4279 94.0285C11.202 93.7925 11.0036 93.5317 10.8364 93.2512L10.5997 92.8279L10.4258 92.4532L9.72984 90.9543C9.24269 89.9689 8.76946 88.9697 8.24752 88.0051L9.27059 87.6373C9.69232 89.1049 10.0086 90.6007 10.217 92.1132C10.217 92.2103 10.217 92.3352 10.217 92.4463C10.2275 92.5849 10.2275 92.7241 10.217 92.8626C10.1717 93.116 10.0897 93.3615 9.97348 93.5913C9.6442 94.2767 9.07847 94.8211 8.37979 95.1249L8.02486 95.2498L7.72557 95.3331C7.3178 95.4399 6.90069 95.5073 6.47993 95.5343C5.56919 95.611 4.65516 95.4306 3.84235 95.0139C3.04303 94.5607 2.39821 93.8791 1.99117 93.0569C1.33316 91.5889 0.984964 90.0016 0.96818 88.3937C0.684168 85.2957 1.13474 82.1746 2.28349 79.2823C3.52776 76.3943 5.6158 73.947 8.27538 72.2597C10.8699 70.5978 13.7703 69.4679 16.8074 68.9357C18.3079 68.6388 19.83 68.4624 21.3588 68.4083C22.9175 68.3338 24.4787 68.4857 25.9936 68.8594C27.5597 69.2405 28.999 70.0227 30.1691 71.1286C30.7141 71.7008 31.2122 72.3157 31.6584 72.9675C32.1067 73.6007 32.5225 74.2561 32.9041 74.9313C33.7006 76.3034 34.2803 77.7897 34.623 79.3378C34.9751 80.9286 35.0317 82.5703 34.7901 84.1815ZM32.3752 83.7096C33.0438 80.9993 32.7563 78.1421 31.561 75.6183C31.2586 74.9704 30.9073 74.3464 30.5101 73.7516C30.137 73.1577 29.7058 72.6021 29.2227 72.0931C28.2218 71.1454 26.9879 70.4776 25.6456 70.157C24.2586 69.811 22.8289 69.6661 21.4005 69.7268C19.9443 69.7735 18.4943 69.9383 17.0649 70.2195C14.2083 70.741 11.485 71.8263 9.05481 73.4116C6.65271 74.9616 4.77924 77.2024 3.6823 79.8374C2.66382 82.5197 2.28957 85.4025 2.58965 88.2549C2.61826 89.6329 2.92106 90.9916 3.48046 92.252C3.73159 92.782 4.14772 93.217 4.66689 93.4921C5.18606 93.7672 5.7805 93.8677 6.36159 93.7786C6.67476 93.7786 7.00185 93.6954 7.32893 93.6329L7.57249 93.5774L7.74647 93.5288C7.85888 93.4908 7.96631 93.4395 8.06657 93.3762C8.27591 93.2436 8.45023 93.0627 8.57467 92.8488C8.63899 92.7527 8.68825 92.6474 8.72078 92.5365C8.72415 92.4903 8.72415 92.4439 8.72078 92.3977C8.72078 92.3214 8.72078 92.2589 8.72078 92.1756C8.62033 90.726 8.44143 89.2828 8.18491 87.8524C8.16184 87.7244 8.18521 87.5924 8.25075 87.48C8.31628 87.3675 8.41977 87.282 8.54272 87.2386C8.66568 87.1953 8.80009 87.1969 8.92195 87.2432C9.04381 87.2896 9.14512 87.3776 9.2079 87.4916C9.702 88.477 10.2448 89.4346 10.7807 90.3922L11.6089 91.8217L11.8176 92.1826L12.0125 92.4601C12.149 92.6391 12.3028 92.8041 12.4718 92.9529C13.21 93.5484 14.1032 93.9215 15.0467 94.0285C16.0039 94.1769 16.9814 94.1321 17.9209 93.8966C18.7877 93.6381 19.551 93.1144 20.103 92.3996C20.655 91.6848 20.9677 90.8151 20.9969 89.9134C21.0083 89.4536 20.9376 88.9954 20.7881 88.5602C20.6419 88.0537 20.461 87.5401 20.294 87.0266C19.953 85.9927 19.598 84.9448 19.2083 83.9525V83.9039C19.157 83.7594 19.1595 83.6013 19.2155 83.4585C19.2714 83.3157 19.377 83.1978 19.513 83.1262C19.6489 83.0546 19.8062 83.0342 19.956 83.0687C20.1058 83.1032 20.2381 83.1903 20.3288 83.3141C20.7812 84.008 21.2613 84.6395 21.7694 85.2779C22.2774 85.9163 22.8063 86.527 23.3213 87.1585L23.3561 87.214C23.6242 87.5996 23.9723 87.9232 24.377 88.1627C24.7817 88.4022 25.2334 88.552 25.7013 88.6019C26.6715 88.651 27.6361 88.4274 28.485 87.9565C29.3822 87.4769 30.1992 86.8612 30.9068 86.1315C31.5895 85.4576 32.094 84.6255 32.3752 83.7096Z" fill="#12100B"/>
<path d="M274.098 178.557C274.098 178.557 299.701 147.094 291.239 93.6052C291.239 93.6052 298.637 76.8119 281.051 70.2473C263.465 63.6826 260.062 76.3886 259.853 85.4236C259.644 94.4587 263.806 96.0686 250.5 118.517L243.846 142.847L256.818 176.725L274.098 178.557Z" fill="white" stroke="#12100B" stroke-width="1.15065" stroke-miterlimit="10"/>
<path d="M274.097 178.557C274.097 178.557 299.7 147.094 291.237 93.6052C291.237 93.6052 298.635 76.8119 281.049 70.2473C263.463 63.6826 260.06 76.3886 259.851 85.4236C259.788 88.0537 259.733 95.5898 264.952 98.2059C277.681 104.562 299.79 110.003 269.942 149.918L274.097 178.557Z" fill="#E2E1E2"/>
<path d="M274.098 178.557C274.098 178.557 298.957 147.205 290.487 93.737C290.487 93.737 297.523 76.7287 281.051 70.2473C263.59 63.3843 260.062 76.3886 259.853 85.4237C259.644 94.4587 263.806 96.0687 250.5 118.518L243.846 142.847L256.818 176.725L274.098 178.557Z" stroke="#12100B" stroke-width="1.15065" stroke-miterlimit="10"/>
<path d="M260.421 83.9455C261.291 88.3589 268.396 92.4393 271.347 87.6581C272.314 86.3465 273.24 85.0281 274.186 83.7026C273.451 85.3517 272.803 87.0379 272.244 88.7545C271.942 90.0376 272.148 91.3874 272.82 92.5226C273.492 93.6578 274.577 94.4905 275.849 94.8472C278.097 95.4093 281.521 94.8889 282.767 92.5295L285.258 87.7622C284.898 89.3086 284.646 90.8785 284.507 92.4601C284.556 92.9155 284.741 93.3458 285.037 93.6958C285.333 94.0457 285.728 94.2993 286.17 94.424C290.102 95.5065 291.668 93.1402 292.085 89.8093C293.282 80.0942 289.301 74.5843 282.927 71.4824C279.495 69.9168 275.768 69.096 271.994 69.0745C268.876 69.0745 265.605 69.8725 263.747 72.2319C261.165 75.5142 259.537 79.4488 260.421 83.9455Z" fill="white"/>
<path d="M261.632 83.7098C261.91 84.6439 262.422 85.4919 263.121 86.1733C263.825 86.9045 264.64 87.5204 265.536 87.9983C266.385 88.4678 267.349 88.6914 268.32 88.6437C268.788 88.5947 269.24 88.4453 269.645 88.2057C270.049 87.9661 270.397 87.6421 270.665 87.2558L270.707 87.2003C271.222 86.5688 271.757 85.9582 272.252 85.3197C272.746 84.6813 273.247 84.029 273.699 83.3559C273.786 83.2248 273.919 83.1306 274.071 83.0919C274.224 83.0531 274.386 83.0724 274.525 83.1461C274.664 83.2198 274.77 83.3426 274.824 83.4904C274.877 83.6383 274.873 83.8006 274.813 83.9457V83.9943C274.451 84.9936 274.068 86.0345 273.734 87.0684C273.56 87.582 273.386 88.0955 273.233 88.602C273.082 89.0367 273.013 89.4956 273.031 89.9552C273.06 90.856 273.371 91.7251 273.922 92.4398C274.473 93.1545 275.235 93.6787 276.1 93.9384C277.04 94.1737 278.017 94.2185 278.974 94.0703C279.918 93.9633 280.811 93.5902 281.549 92.9947C281.72 92.846 281.876 92.681 282.015 92.502L282.203 92.2244L282.412 91.8635L283.24 90.434C283.776 89.4764 284.326 88.5188 284.82 87.5334C284.883 87.4194 284.984 87.3314 285.106 87.285C285.228 87.2387 285.362 87.2371 285.485 87.2804C285.608 87.3238 285.712 87.4093 285.777 87.5218C285.843 87.6342 285.866 87.7662 285.843 87.8942C285.586 89.3246 285.408 90.7678 285.307 92.2175C285.307 92.3007 285.307 92.3632 285.307 92.4395C285.304 92.4857 285.304 92.5321 285.307 92.5783C285.34 92.6877 285.387 92.7926 285.446 92.8906C285.573 93.105 285.75 93.2858 285.961 93.418C286.06 93.4799 286.165 93.5311 286.274 93.5706L286.455 93.6192L286.699 93.6747C287.019 93.7397 287.341 93.7884 287.666 93.8204C288.247 93.9084 288.841 93.8074 289.36 93.5324C289.879 93.2574 290.295 92.8231 290.547 92.2938C291.107 91.0337 291.407 89.6746 291.431 88.2967C291.734 85.4448 291.362 82.562 290.346 79.8793C289.248 77.2424 287.372 75.0011 284.966 73.4534C282.537 71.8669 279.813 70.7815 276.956 70.2613C275.527 69.9793 274.077 69.8146 272.62 69.7686C271.194 69.7075 269.767 69.8524 268.382 70.1988C267.038 70.5207 265.803 71.1883 264.798 72.1349C264.32 72.6459 263.891 73.2013 263.518 73.7934C263.12 74.3882 262.769 75.0122 262.467 75.6601C261.271 78.1685 260.976 81.0105 261.632 83.7098ZM259.217 84.1817C258.962 82.5681 259.007 80.9215 259.349 79.3241C259.694 77.7757 260.276 76.2894 261.075 74.9176C261.454 74.2409 261.87 73.5853 262.321 72.9538C262.765 72.3021 263.26 71.6871 263.803 71.1148C264.975 70.0119 266.414 69.2301 267.979 68.8457C269.493 68.4727 271.055 68.3207 272.613 68.3946C274.142 68.4485 275.664 68.6248 277.165 68.922C280.204 69.4529 283.107 70.5829 285.704 72.246C288.363 73.9333 290.451 76.3806 291.696 79.2686C292.841 82.1618 293.291 85.2821 293.011 88.38C292.987 89.9871 292.639 91.5731 291.988 93.0432C291.578 93.8656 290.931 94.547 290.13 95.0001C289.318 95.4194 288.403 95.5999 287.492 95.5206C287.074 95.493 286.659 95.4257 286.253 95.3194L285.954 95.2361C285.833 95.2026 285.715 95.1609 285.599 95.1112C285.351 95.013 285.117 94.8823 284.903 94.7226C284.507 94.4193 284.187 94.027 283.971 93.5776C283.855 93.3478 283.773 93.1023 283.727 92.8489C283.7 92.7118 283.686 92.5724 283.686 92.4326C283.686 92.3215 283.686 92.1966 283.686 92.0995C283.9 90.5874 284.218 89.0919 284.639 87.6236L285.662 87.9914C285.133 88.9559 284.66 89.9552 284.173 90.9406L283.477 92.4395L283.303 92.8142L283.066 93.2375C282.897 93.5182 282.696 93.7789 282.468 94.0147C281.572 94.9158 280.425 95.5275 279.176 95.7704C277.96 96.0364 276.699 96.0246 275.488 95.7357C274.205 95.39 273.081 94.6129 272.307 93.5359C271.516 92.4922 271.097 91.2148 271.117 89.9066C271.12 89.5752 271.157 89.245 271.229 88.9213C271.297 88.6196 271.385 88.3228 271.493 88.033C271.688 87.4918 271.89 86.9713 272.105 86.4508C272.558 85.4307 272.989 84.4176 273.497 83.4183L274.597 84.0568C274.1 84.7044 273.636 85.3706 273.205 86.0553C272.753 86.7492 272.342 87.4432 271.911 88.1371L271.945 88.0816C271.603 88.7098 271.153 89.2734 270.616 89.747C270.04 90.2364 269.359 90.5878 268.626 90.7741C267.194 91.1073 265.693 90.971 264.346 90.3855C263.049 89.8652 261.896 89.0417 260.985 87.9844C260.064 86.8976 259.454 85.5843 259.217 84.1817Z" fill="#12100B"/>
<path d="M147.166 311.133C219.731 311.133 278.556 257.667 278.556 191.714C278.556 125.76 219.731 72.2942 147.166 72.2942C74.6009 72.2942 15.7754 125.76 15.7754 191.714C15.7754 257.667 74.6009 311.133 147.166 311.133Z" fill="white" stroke="#12100B" stroke-width="1.15065" stroke-miterlimit="10"/>
<path d="M56.1277 185.017C53.8033 227.403 81.2227 237.833 107.195 260.316C131.468 281.336 144.594 291.967 138.455 301.758C133.034 310.418 112.323 310.266 112.212 310.245C106.429 309.384 104.237 309.294 97.3472 308.101C70.9508 303.548 48.4098 290.877 34.2687 269.816C21.4567 250.74 15.7641 224.773 15.7641 191.714C15.7641 125.79 74.5905 72.2942 147.155 72.2942C201.805 72.2942 149.542 95.5133 107.048 136.789C93.1439 150.32 58.0275 150.348 56.1277 185.017Z" fill="#E2E1E2"/>
<path d="M279.609 191.714L279.484 198.043C279.484 199.097 279.484 200.124 279.415 201.207L279.227 204.364L279.039 207.529C278.976 208.583 278.941 209.611 278.816 210.686L278.176 216.994C277.184 225.398 275.504 233.707 273.151 241.837C270.788 250 267.412 257.837 263.102 265.167C258.745 272.496 253.286 279.114 246.915 284.792C240.535 290.446 233.358 295.136 225.613 298.712C217.889 302.259 209.817 304.998 201.527 306.887C184.985 310.745 167.997 311.938 151.121 312.147C142.673 312.23 134.231 312.147 125.783 311.8C117.318 311.484 108.876 310.745 100.486 309.586C98.398 309.281 96.3102 308.892 94.2224 308.566C92.1347 308.24 90.0469 307.761 87.9591 307.268C85.8713 306.775 83.7835 306.317 81.7654 305.693L78.6964 304.805L75.6621 303.785C73.623 303.139 71.6536 302.307 69.6632 301.529C68.6611 301.162 67.7008 300.676 66.7265 300.239C65.7522 299.801 64.771 299.371 63.8106 298.892L60.9712 297.393L59.5793 296.637L58.1875 295.79C56.3781 294.645 54.506 293.591 52.808 292.265C45.7967 287.279 39.6795 281.149 34.714 274.133C29.8477 267.105 25.968 259.447 23.1825 251.372L22.1734 248.346C21.8533 247.333 21.4775 246.341 21.22 245.307L19.5846 239.158C19.0835 237.077 18.7147 234.995 18.2763 232.913C18.0744 231.872 17.8239 230.831 17.6638 229.797L17.1976 226.654C15.9324 218.3 15.1655 209.88 14.901 201.436L14.7966 195.107L14.748 191.943C14.748 190.888 14.8036 189.826 14.8245 188.765L14.915 185.586L15.1725 182.415L15.4508 179.251L15.8893 176.1C17.0858 167.696 19.2433 159.457 22.3196 151.542C25.3932 143.635 29.3353 136.093 34.0738 129.051C38.8234 122.017 44.2874 115.49 50.3792 109.573C62.6019 97.7443 76.9868 88.3639 92.754 81.9401C124.524 69.0824 159.835 67.8678 192.417 78.5121C208.596 83.8111 223.621 92.1182 236.699 102.994C249.81 113.873 260.498 127.361 268.078 142.597C275.639 157.874 279.583 174.678 279.609 191.714ZM277.522 191.714C277.504 174.995 273.64 158.502 266.227 143.506C258.785 128.522 248.284 115.255 235.398 104.555C222.519 93.8321 207.721 85.638 191.784 80.4065C159.659 69.8874 124.832 71.0876 93.5126 83.7929C77.9922 90.1247 63.8323 99.3633 51.7989 111.009C45.8175 116.83 40.4538 123.251 35.7927 130.169C31.1418 137.096 27.2744 144.515 24.2612 152.291C21.2553 160.062 19.1537 168.15 17.9979 176.399L17.5664 179.487L17.3019 182.596L17.0445 185.711L16.9609 188.827C16.9609 189.868 16.8914 190.909 16.8844 191.95L16.954 195.086L17.0932 201.367C17.5247 209.694 18.0884 218.077 19.5429 226.3L20.037 229.388C20.204 230.415 20.4685 231.428 20.6772 232.448C21.1365 234.481 21.5263 236.528 22.0691 238.548L23.7462 244.557C23.9967 245.57 24.3865 246.535 24.7135 247.52L25.7435 250.463C28.5296 258.266 32.3769 265.652 37.1776 272.412C41.9829 279.128 47.8852 284.993 54.6383 289.76C56.2737 291.023 58.1179 292.029 59.8298 293.126L61.1521 293.938L62.544 294.666L65.279 296.131C66.2046 296.602 67.151 297.012 68.0627 297.456C68.9743 297.9 69.9277 298.358 70.902 298.719C72.8297 299.482 74.7365 300.301 76.713 300.939C84.6035 303.65 92.7197 305.656 100.966 306.935C117.501 309.572 134.37 310.113 151.177 310.037C167.983 309.961 184.818 308.649 201.137 304.888C209.281 303.038 217.21 300.352 224.799 296.873C232.375 293.388 239.396 288.81 245.635 283.286C251.85 277.741 257.171 271.274 261.411 264.112C265.632 256.918 268.933 249.224 271.238 241.212C273.554 233.192 275.202 224.994 276.165 216.703L276.791 210.457C276.916 209.423 276.951 208.375 277.014 207.327L277.195 204.198L277.376 201.068C277.417 200.027 277.424 198.986 277.445 197.932L277.522 191.714Z" fill="#12100B"/>
<path d="M68.1603 54.3908C68.1603 54.3908 59.3916 4.51064 70.3246 2.10268C81.2575 -0.305276 113.569 14.5935 113.569 14.5935L120.034 34.5442L68.1603 54.3908Z" fill="white"/>
<path d="M68.1605 54.3905C66.287 46.2665 64.9204 38.0345 64.0684 29.7419C63.6232 25.5654 63.4048 21.3679 63.4142 17.1678C63.4273 15.0313 63.5645 12.8973 63.8249 10.7766C64.0543 8.52795 64.6293 6.32788 65.5299 4.25362C66.0911 3.02837 66.9585 1.96743 68.0491 1.17255C68.6758 0.739703 69.3874 0.44408 70.1369 0.305125C70.7264 0.179616 71.324 0.0961318 71.9254 0.0553079C74.1532 -0.0643951 76.3876 0.0682957 78.5854 0.450846C82.7845 1.17314 86.9231 2.21005 90.9659 3.55274C94.9884 4.83652 98.9412 6.26603 102.852 7.79269C106.763 9.31935 110.591 10.9779 114.439 12.7335L115.254 13.1082L115.525 13.9549C116.583 17.2857 117.662 20.6097 118.698 23.9475L121.795 33.968L122.31 35.6404L120.703 36.2371C116.256 37.8887 111.781 39.4709 107.327 41.0461L100.653 43.3916L94.021 45.6608L68.1605 54.3905ZM68.1605 54.3905L94.188 43.2875L100.521 40.5881L106.784 37.972C110.96 36.2302 115.135 34.5023 119.311 32.8438L118.225 35.1199L114.857 25.1897C113.737 21.8727 112.672 18.5487 111.572 15.2317L112.658 16.453C108.921 14.7737 105.072 13.1985 101.245 11.6787C97.4171 10.159 93.5408 8.70869 89.6437 7.42491C87.6881 6.77955 85.7325 6.1897 83.763 5.65537C81.7936 5.12104 79.8311 4.6214 77.8616 4.2675C75.9664 3.88009 74.0336 3.70552 72.0994 3.74704C71.6585 3.76669 71.2193 3.81305 70.7841 3.88584C70.7031 3.89365 70.6235 3.91232 70.5475 3.94136C70.4808 3.95338 70.4155 3.97197 70.3526 3.99686L70.1717 4.07319L69.9908 4.18423C69.3928 4.61858 68.9141 5.19611 68.5989 5.86355C67.7782 7.57928 67.2222 9.40878 66.9496 11.2901C66.6199 13.2818 66.4038 15.2905 66.3023 17.3066C66.0727 21.373 66.0727 25.502 66.2258 29.6239C66.3789 33.7459 66.6086 37.8887 66.9217 42.0246C67.0748 44.1064 67.2558 46.1882 67.4506 48.2214C67.6455 50.2547 67.9587 52.3295 68.1605 54.3905Z" fill="#12100B"/>
<path d="M79.8573 44.3912C79.2936 44.6081 78.6876 44.6935 78.0858 44.6408C77.4839 44.5881 76.9021 44.3988 76.3849 44.0874C75.8677 43.776 75.4288 43.3506 75.1018 42.844C74.7749 42.3374 74.5686 41.7628 74.4987 41.1644C74.2203 38.7426 73.9489 36.1334 73.7262 33.4756C72.7032 21.1444 73.3086 14.9128 73.9489 11.9081C74.0909 11.441 74.3833 11.0336 74.7808 10.7489C75.1783 10.4642 75.6588 10.3179 76.148 10.3328C77.6582 10.5063 82.6758 11.5056 84.3182 11.8942C92.1264 13.7123 99.8025 16.946 107.639 20.3047C108.157 20.527 108.622 20.8576 109.001 21.2742C109.38 21.6908 109.666 22.1837 109.838 22.7196L111.619 28.2294C111.931 29.1902 111.861 30.2335 111.425 31.1447C110.989 32.0559 110.219 32.7659 109.274 33.1286L79.8573 44.3912Z" fill="#F29093"/>
<path d="M81.945 20.7974C82.9054 17.1473 86.058 12.6645 86.2598 12.373C82.2861 11.3529 76.9344 10.423 76.148 10.3328C75.6588 10.3179 75.1783 10.4642 74.7808 10.7489C74.3833 11.0336 74.0909 11.441 73.9489 11.9081C73.3086 14.9128 72.7032 21.1444 73.7262 33.4756C73.9489 36.1334 74.2203 38.7426 74.4987 41.1644C74.5686 41.7628 74.7749 42.3374 75.1018 42.844C75.4288 43.3506 75.8677 43.776 76.3849 44.0874C76.9021 44.3988 77.4839 44.5881 78.0858 44.6408C78.6876 44.6935 79.2936 44.6081 79.8573 44.3912L92.4326 39.5753C92.1195 39.1798 79.5232 34.8912 81.945 20.7974Z" fill="#DE5551"/>
<path d="M79.8573 44.3912C79.2936 44.6081 78.6876 44.6935 78.0858 44.6408C77.4839 44.5881 76.9021 44.3988 76.3849 44.0874C75.8677 43.776 75.4288 43.3506 75.1018 42.844C74.7749 42.3374 74.5686 41.7628 74.4987 41.1644C74.2203 38.7426 73.9489 36.1334 73.7262 33.4756C72.7032 21.1444 73.3086 14.9128 73.9489 11.9081C74.0909 11.441 74.3833 11.0336 74.7808 10.7489C75.1783 10.4642 75.6588 10.3179 76.148 10.3328C77.6582 10.5063 82.6758 11.5056 84.3182 11.8942C92.1264 13.7123 99.8025 16.946 107.639 20.3047C108.157 20.527 108.622 20.8576 109.001 21.2742C109.38 21.6908 109.666 22.1837 109.838 22.7196L111.619 28.2294C111.931 29.1902 111.861 30.2335 111.425 31.1447C110.989 32.0559 110.219 32.7659 109.274 33.1286L79.8573 44.3912Z" stroke="#12100B" stroke-width="0.767099" stroke-miterlimit="10"/>
<path d="M226.358 54.3908C226.358 54.3908 235.119 4.51064 224.186 2.10268C213.253 -0.305276 180.942 14.5935 180.942 14.5935L174.483 34.5442L226.358 54.3908Z" fill="white"/>
<path d="M226.354 54.3908C226.591 52.309 226.779 50.2271 226.967 48.187C227.155 46.1468 227.343 44.058 227.496 41.9901C227.834 37.8542 228.066 33.7207 228.192 29.5895C228.352 25.4675 228.345 21.3386 228.122 17.2721C228.018 15.2559 227.8 13.2472 227.468 11.2557C227.201 9.37397 226.647 7.54399 225.826 5.82908C225.506 5.16462 225.028 4.58813 224.434 4.14976L224.253 4.03873L224.065 3.9624C224.005 3.93661 223.942 3.91797 223.877 3.90689C223.798 3.87803 223.717 3.85937 223.633 3.85137C223.2 3.77892 222.764 3.73258 222.325 3.71258C220.389 3.67136 218.453 3.84592 216.556 4.23304C214.593 4.59388 212.624 5.08658 210.654 5.62091C208.685 6.15524 206.729 6.74508 204.781 7.39044C200.877 8.67422 197.014 10.1107 193.18 11.6443C189.345 13.1779 185.525 14.7392 181.767 16.4186L182.852 15.1972C181.753 18.5142 180.681 21.8382 179.56 25.1552L176.199 35.0854L175.107 32.8093C179.282 34.4678 183.458 36.1957 187.633 37.9375L193.896 40.5537L200.229 43.2531L226.354 54.3908ZM226.354 54.3908L200.508 45.661L193.869 43.3919L187.202 41.0464C182.748 39.4711 178.273 37.889 173.819 36.2374L172.218 35.6406L172.734 33.9682L175.83 23.9478C176.86 20.6099 177.918 17.286 179.004 13.9551L179.268 13.1085L180.089 12.7338C183.931 10.9781 187.745 9.33346 191.677 7.79292C195.609 6.25238 199.54 4.83675 203.556 3.55297C207.601 2.21034 211.742 1.17344 215.943 0.451074C218.141 0.0681067 220.375 -0.064587 222.603 0.0555355C223.205 0.0963594 223.802 0.179843 224.392 0.305353C225.142 0.44329 225.853 0.738999 226.48 1.17277C227.57 1.96766 228.438 3.0286 228.999 4.25385C229.905 6.3267 230.482 8.52725 230.711 10.7769C230.964 12.8982 231.101 15.0318 231.121 17.168C231.127 21.368 230.909 25.5653 230.467 29.7421C229.602 38.0343 228.228 46.2659 226.354 54.3908Z" fill="#12100B"/>
<path d="M214.658 44.3912C215.221 44.6082 215.827 44.6936 216.428 44.641C217.03 44.5883 217.611 44.3989 218.128 44.0874C218.644 43.7758 219.083 43.3504 219.409 42.8437C219.735 42.337 219.94 41.7625 220.009 41.1644C220.295 38.7425 220.566 36.1333 220.782 33.4756C221.805 21.1443 221.199 14.9128 220.559 11.908C220.418 11.4415 220.127 11.0343 219.731 10.7495C219.335 10.4647 218.855 10.3182 218.367 10.3328C216.857 10.5063 211.839 11.5055 210.197 11.8941C202.388 13.7122 194.705 16.946 186.876 20.3046C186.358 20.5281 185.893 20.8589 185.513 21.2753C185.132 21.6917 184.845 22.184 184.67 22.7195L182.889 28.2294C182.578 29.191 182.648 30.235 183.086 31.1464C183.523 32.0577 184.295 32.7672 185.241 33.1286L214.658 44.3912Z" fill="#F29093"/>
<path d="M206.118 20.4712C207.078 16.8211 211.449 12.144 211.685 11.8525C204.399 13.1155 193.946 17.404 193.16 17.293C192.67 17.2781 192.19 17.4243 191.792 17.7091C191.395 17.9938 191.103 18.4012 190.961 18.8682C190.32 21.866 201.643 21.1513 202.666 33.4825C202.882 36.1403 203.153 38.7495 203.438 41.1714C203.507 41.7695 203.713 42.344 204.039 42.8507C204.365 43.3574 204.803 43.7828 205.32 44.0944C205.837 44.4059 206.418 44.5953 207.02 44.6479C207.621 44.7006 208.227 44.6152 208.79 44.3982L216.292 40.8452C215.944 40.4358 203.661 34.5581 206.118 20.4712Z" fill="#DE5551"/>
<path d="M214.658 44.3912C215.221 44.6082 215.827 44.6936 216.428 44.641C217.03 44.5883 217.611 44.3989 218.128 44.0874C218.644 43.7758 219.083 43.3504 219.409 42.8437C219.735 42.337 219.94 41.7625 220.009 41.1644C220.295 38.7425 220.566 36.1333 220.782 33.4756C221.805 21.1443 221.199 14.9128 220.559 11.908C220.418 11.4415 220.127 11.0343 219.731 10.7495C219.335 10.4647 218.855 10.3182 218.367 10.3328C216.857 10.5063 211.839 11.5055 210.197 11.8941C202.388 13.7122 194.705 16.946 186.876 20.3046C186.358 20.5281 185.893 20.8589 185.513 21.2753C185.132 21.6917 184.845 22.184 184.67 22.7195L182.889 28.2294C182.578 29.191 182.648 30.235 183.086 31.1464C183.523 32.0577 184.295 32.7672 185.241 33.1286L214.658 44.3912Z" stroke="#12100B" stroke-width="0.767099" stroke-miterlimit="10"/>
<path d="M142.422 129.135C207.838 129.135 237.387 105.902 237.429 105.867C238.366 101.108 238.832 96.2689 238.821 91.4192C238.821 46.1329 197.762 9.41675 147.161 9.41675C96.5602 9.41675 55.5007 46.1329 55.5007 91.4192C55.5002 96.7082 56.0672 101.982 57.1918 107.151C62.7731 112.029 86.2884 129.135 142.422 129.135Z" fill="white"/>
<path d="M142.417 129.135C146.551 129.031 150.685 128.968 154.811 128.816L160.998 128.392C163.086 128.24 165.125 128.163 167.171 127.886C171.277 127.386 175.397 127.039 179.461 126.29C181.5 125.943 183.546 125.658 185.571 125.256L191.633 123.979C199.687 122.196 207.596 119.816 215.294 116.859C219.122 115.325 222.949 113.709 226.575 111.814C230.252 109.998 233.771 107.881 237.098 105.485L236.924 105.77C238.092 99.5971 238.466 93.3009 238.037 87.0336C237.596 80.792 236.371 74.6302 234.39 68.6929C230.479 56.8058 223.402 46.1053 214.522 37.3686C205.541 28.6523 194.871 21.8563 183.163 17.3971C159.557 8.42384 133.438 8.58475 109.945 17.8482C98.2844 22.4454 87.6995 29.3905 78.8514 38.2499C74.4394 42.6891 70.5496 47.6155 67.2572 52.9336C63.9835 58.266 61.3709 63.9749 59.4768 69.935L59.115 71.0523L58.8087 72.1834L58.2033 74.4456C57.8135 75.9653 57.5074 77.5059 57.2081 79.0326C56.9924 80.58 56.7071 82.1206 56.5122 83.6819L56.2964 86.0135L56.1851 87.1863L56.1364 88.359C55.8008 94.6288 56.285 100.915 57.5769 107.061L57.5143 106.846C60.3309 109.252 63.3801 111.375 66.617 113.181C68.2106 114.139 69.8809 114.951 71.5372 115.797C72.3653 116.221 73.2283 116.575 74.0704 116.97C74.9124 117.366 75.7614 117.754 76.6243 118.094L79.2271 119.114C80.09 119.454 80.953 119.808 81.8438 120.093C83.6114 120.676 85.3234 121.328 87.1467 121.848L92.5263 123.389L97.9614 124.687C98.8661 124.923 99.7848 125.082 100.703 125.263L103.487 125.79L106.229 126.317L109.013 126.727C110.864 126.99 112.708 127.275 114.58 127.518L120.147 128.08L122.931 128.364L125.715 128.531L131.282 128.871C134.936 129.051 138.673 129.051 142.417 129.135ZM142.417 129.135C138.687 129.051 134.95 129.051 131.22 128.899L125.652 128.587L122.869 128.42L120.085 128.149L114.517 127.601C112.666 127.365 110.822 127.088 108.95 126.831L106.166 126.449L103.383 125.943L100.599 125.443C99.6804 125.276 98.7617 125.124 97.857 124.895C90.5295 123.387 83.3464 121.251 76.3878 118.511C75.5109 118.177 74.6689 117.782 73.8059 117.421C72.943 117.06 72.08 116.727 71.2379 116.283C69.5607 115.457 67.8627 114.673 66.2343 113.736C62.9261 111.964 59.8003 109.872 56.9019 107.491L56.7975 107.408V107.269C55.3835 101.062 54.787 94.6985 55.0229 88.3382V87.1446L55.1134 85.958L55.2943 83.5778C55.4405 81.9957 55.698 80.4204 55.8928 78.8452C56.206 77.2838 56.4565 75.7086 56.8253 74.1542L57.4029 71.8364L57.6953 70.6776L58.0432 69.5395C59.877 63.419 62.4474 57.5425 65.6984 52.0384C68.9826 46.548 72.8815 41.4472 77.3203 36.8343C81.7447 32.202 86.6667 28.0691 91.9974 24.51C97.3334 20.9443 103.015 17.9221 108.957 15.4888C133.026 5.76212 159.912 5.57098 184.117 14.9545C196.115 19.6305 207.014 26.7301 216.129 35.8072C225.093 44.9256 232.135 56.0216 235.942 68.228C237.861 74.3065 239.006 80.6011 239.352 86.9642C239.677 93.3265 239.189 99.7042 237.898 105.943L237.863 106.131L237.724 106.235C234.309 108.613 230.701 110.702 226.937 112.48C223.228 114.326 219.386 115.888 215.517 117.338C207.744 120.179 199.779 122.467 191.682 124.187L185.599 125.408C183.567 125.79 181.514 126.054 179.475 126.38C175.404 127.074 171.277 127.442 167.171 127.92C165.125 128.191 163.058 128.26 160.991 128.406L154.805 128.816C150.671 128.996 146.537 129.051 142.417 129.135Z" fill="#12100B"/>
<path d="M142.423 129.135C53.943 93.6536 80.0402 33.989 125.902 11.8594C101.927 11.8594 56.1422 45.6055 56.1422 91.6621C56.1422 97.047 56.1421 102.071 57.2208 107.185C62.7743 112.029 86.2896 129.135 142.423 129.135Z" fill="#E2E1E2"/>
<path d="M142.417 129.135C146.551 129.031 150.685 128.968 154.811 128.816L160.998 128.392C163.086 128.24 165.125 128.163 167.171 127.886C171.277 127.386 175.397 127.039 179.461 126.29C181.5 125.943 183.546 125.658 185.571 125.256L191.633 123.979C199.687 122.196 207.596 119.816 215.294 116.859C219.122 115.325 222.949 113.709 226.575 111.814C230.252 109.998 233.771 107.881 237.098 105.485L236.924 105.77C238.092 99.5971 238.466 93.3009 238.037 87.0336C237.596 80.792 236.371 74.6302 234.39 68.6929C230.479 56.8058 223.402 46.1053 214.522 37.3686C205.541 28.6523 194.871 21.8563 183.163 17.3971C159.557 8.42384 133.438 8.58475 109.945 17.8482C98.2844 22.4454 87.6995 29.3905 78.8514 38.2499C74.4394 42.6891 70.5496 47.6155 67.2572 52.9336C63.9835 58.266 61.3709 63.9749 59.4768 69.935L59.115 71.0523L58.8087 72.1834L58.2033 74.4456C57.8135 75.9653 57.5074 77.5059 57.2081 79.0326C56.9924 80.58 56.7071 82.1206 56.5122 83.6819L56.2964 86.0135L56.1851 87.1863L56.1364 88.359C55.8008 94.6288 56.285 100.915 57.5769 107.061L57.5143 106.846C60.3309 109.252 63.3801 111.375 66.617 113.181C68.2106 114.139 69.8809 114.951 71.5372 115.797C72.3653 116.221 73.2283 116.575 74.0704 116.97C74.9124 117.366 75.7614 117.754 76.6243 118.094L79.2271 119.114C80.09 119.454 80.953 119.808 81.8438 120.093C83.6114 120.676 85.3234 121.328 87.1467 121.848L92.5263 123.389L97.9614 124.687C98.8661 124.923 99.7848 125.082 100.703 125.263L103.487 125.79L106.229 126.317L109.013 126.727C110.864 126.99 112.708 127.275 114.58 127.518L120.147 128.08L122.931 128.364L125.715 128.531L131.282 128.871C134.936 129.051 138.673 129.051 142.417 129.135ZM142.417 129.135C138.687 129.051 134.95 129.051 131.22 128.899L125.652 128.587L122.869 128.42L120.085 128.149L114.517 127.601C112.666 127.365 110.822 127.088 108.95 126.831L106.166 126.449L103.383 125.943L100.599 125.443C99.6804 125.276 98.7617 125.124 97.857 124.895C90.5295 123.387 83.3464 121.251 76.3878 118.511C75.5109 118.177 74.6689 117.782 73.8059 117.421C72.943 117.06 72.08 116.727 71.2379 116.283C69.5607 115.457 67.8627 114.673 66.2343 113.736C62.9261 111.964 59.8003 109.872 56.9019 107.491L56.7975 107.408V107.269C55.3835 101.062 54.787 94.6985 55.0229 88.3382V87.1446L55.1134 85.958L55.2943 83.5778C55.4405 81.9957 55.698 80.4204 55.8928 78.8452C56.206 77.2838 56.4565 75.7086 56.8253 74.1542L57.4029 71.8364L57.6953 70.6776L58.0432 69.5395C59.877 63.419 62.4474 57.5425 65.6984 52.0384C68.9826 46.548 72.8815 41.4472 77.3203 36.8343C81.7447 32.202 86.6667 28.0691 91.9974 24.51C97.3334 20.9443 103.015 17.9221 108.957 15.4888C133.026 5.76212 159.912 5.57098 184.117 14.9545C196.115 19.6305 207.014 26.7301 216.129 35.8072C225.093 44.9256 232.135 56.0216 235.942 68.228C237.861 74.3065 239.006 80.6011 239.352 86.9642C239.677 93.3265 239.189 99.7042 237.898 105.943L237.863 106.131L237.724 106.235C234.309 108.613 230.701 110.702 226.937 112.48C223.228 114.326 219.386 115.888 215.517 117.338C207.744 120.179 199.779 122.467 191.682 124.187L185.599 125.408C183.567 125.79 181.514 126.054 179.475 126.38C175.404 127.074 171.277 127.442 167.171 127.92C165.125 128.191 163.058 128.26 160.991 128.406L154.805 128.816C150.671 128.996 146.537 129.051 142.417 129.135Z" fill="#12100B"/>
<path d="M56.9253 95.5689C56.9253 95.5689 51.6432 89.837 48.2053 98.192C45.9568 103.877 44.1763 109.734 42.8815 115.707C42.8815 115.707 93.7535 129.863 147.896 129.863C202.039 129.863 250.691 114.909 250.691 114.909C250.691 114.909 247.963 91.558 241.498 93.9104C234.817 96.3322 203.334 108.622 146.853 108.622C90.3713 108.622 56.9253 95.5689 56.9253 95.5689Z" fill="#E71E69" stroke="#12100B" stroke-width="1.15065" stroke-miterlimit="10"/>
<path d="M107.907 124.717C109.319 115.425 102.145 106.635 91.8823 105.085C81.6201 103.534 72.1564 109.81 70.7445 119.102C69.3326 128.394 76.5072 137.183 86.7694 138.734C97.0316 140.284 106.495 134.009 107.907 124.717Z" fill="#F5D521" stroke="#12100B" stroke-width="1.15214" stroke-miterlimit="10"/>
<path d="M75.4995 126.22C76.2226 126.498 76.9741 126.696 77.7405 126.81C78.4364 126.942 79.2088 127.039 79.9256 127.136C81.3731 127.33 82.8137 127.483 84.2404 127.65C87.1076 127.969 89.9748 128.344 92.8629 128.76C95.751 129.176 98.5276 129.669 101.318 130.148C102.71 130.384 104.102 130.613 105.494 130.842C105.849 130.897 106.19 130.946 106.573 130.981C106.955 131.015 107.269 131.057 107.665 131.099C108.062 131.14 108.417 131.154 108.793 131.154C109.188 131.174 109.584 131.155 109.976 131.099C109.695 131.68 109.217 132.142 108.626 132.403C107.962 132.758 107.262 133.04 106.538 133.243C104.994 133.663 103.41 133.923 101.812 134.02C98.5722 134.214 95.3204 134.044 92.1182 133.513C88.9435 133.043 85.8225 132.265 82.7998 131.189C81.2959 130.649 79.8427 129.978 78.4572 129.183C77.7943 128.8 77.1698 128.353 76.5922 127.851C76.0577 127.442 75.6735 126.869 75.4995 126.22Z" fill="#BD8D15"/>
<path d="M95.7936 108.233C95.7936 108.233 105.161 120.336 101.758 124.451L111.897 126.019C111.897 126.019 113.783 112.397 95.7936 108.233Z" fill="white"/>
<path d="M107.907 124.717C109.319 115.425 102.145 106.635 91.8823 105.085C81.6201 103.534 72.1564 109.81 70.7445 119.102C69.3326 128.394 76.5072 137.183 86.7694 138.734C97.0316 140.284 106.495 134.009 107.907 124.717Z" stroke="#12100B" stroke-width="1.15214" stroke-miterlimit="10"/>
<path d="M103.577 131.008C99.9355 130.977 96.3015 130.668 92.7068 130.085C89.1459 129.547 85.624 128.777 82.1636 127.782C80.4507 127.284 78.7703 126.682 77.1321 125.977C76.3483 125.632 75.5881 125.235 74.8564 124.791C74.0978 124.305 73.2836 123.701 73.0817 122.882C73.0449 122.729 73.0434 122.57 73.0772 122.416C73.1111 122.262 73.1796 122.118 73.2774 121.995C73.3752 121.871 73.4998 121.771 73.6419 121.703C73.784 121.634 73.9399 121.598 74.0978 121.599C74.2116 121.596 74.325 121.615 74.4319 121.654C75.0996 121.859 75.781 122.017 76.4709 122.126L76.791 122.182C77.5774 122.313 78.3777 122.431 79.1571 122.542C80.2845 122.702 81.3981 122.841 82.5115 122.98L83.9451 123.167C87.4247 123.597 90.5634 124.034 93.5419 124.485C96.7362 124.964 99.8053 125.478 102.958 125.998C104.503 126.255 106.041 126.498 107.613 126.734L108.776 126.893L109.729 127.011H109.994C110.411 127.053 110.801 127.088 111.177 127.108C111.436 127.133 111.696 127.145 111.956 127.143H112.422C112.588 127.146 112.75 127.188 112.897 127.265C113.043 127.343 113.168 127.454 113.263 127.59C113.357 127.725 113.418 127.882 113.44 128.045C113.462 128.209 113.445 128.375 113.39 128.531C113.07 129.357 112.13 129.773 111.344 130.051C110.555 130.309 109.744 130.498 108.922 130.613C107.154 130.864 105.37 130.98 103.584 130.96L103.577 131.008Z" fill="#BD8D15"/>
<path d="M74.0934 122.64C74.9131 122.89 75.7506 123.078 76.5988 123.202C77.413 123.347 78.2272 123.458 79.0206 123.576C80.6282 123.798 82.2288 123.993 83.8086 124.194C86.9889 124.596 90.1763 125.027 93.3775 125.512C96.5788 125.998 99.6826 126.505 102.779 127.025C104.338 127.282 105.876 127.532 107.463 127.761L108.653 127.927L109.871 128.073C110.275 128.115 110.699 128.156 111.117 128.177C111.402 128.177 111.673 128.212 111.952 128.212H112.418C112.258 128.6 111.652 128.906 111.026 129.121C110.293 129.359 109.541 129.533 108.778 129.641C107.063 129.882 105.332 129.993 103.601 129.974C100.013 129.939 96.4325 129.636 92.8903 129.065C89.3648 128.533 85.8778 127.773 82.4515 126.789C80.7937 126.302 79.1669 125.716 77.58 125.034C76.8467 124.71 76.1354 124.339 75.4505 123.923C74.8311 123.528 74.2257 123.077 74.1213 122.647M74.1213 120.565C73.8053 120.565 73.4936 120.637 73.2096 120.775C72.9257 120.913 72.6768 121.114 72.4819 121.362C72.2869 121.61 72.1509 121.898 72.084 122.206C72.0172 122.514 72.0213 122.833 72.0961 123.139C72.3814 124.312 73.3836 125.082 74.3301 125.679C75.0937 126.147 75.8889 126.562 76.7101 126.921C78.389 127.652 80.114 128.273 81.8739 128.781C85.3821 129.792 88.9528 130.573 92.5632 131.119C96.2133 131.71 99.903 132.023 103.601 132.056C105.437 132.074 107.273 131.956 109.091 131.702C109.983 131.575 110.861 131.368 111.715 131.085C112.26 130.949 112.772 130.706 113.221 130.368C113.669 130.031 114.045 129.607 114.325 129.121C114.462 128.838 114.534 128.527 114.534 128.212C114.534 127.66 114.314 127.13 113.922 126.74C113.531 126.349 113 126.13 112.446 126.13H111.98C111.764 126.13 111.548 126.13 111.284 126.13H111.228C110.88 126.13 110.532 126.068 110.142 126.033H110.08H109.801L108.952 125.929H108.897C108.528 125.887 108.138 125.825 107.769 125.769C106.085 125.526 104.477 125.263 103.12 125.041C99.9888 124.52 96.9058 124.007 93.6906 123.521C90.6982 123.07 87.5526 122.64 84.073 122.202L82.5907 122.015C81.505 121.876 80.4054 121.737 79.3128 121.585H79.2502C78.4917 121.481 77.7123 121.37 76.9537 121.238L76.6614 121.182C76.0186 121.084 75.3837 120.941 74.7615 120.752C74.5379 120.675 74.3023 120.637 74.0656 120.641L74.1213 120.565Z" fill="#12100B"/>
<path d="M142.303 63.8213H152.324C153.445 63.8213 154.05 64.9247 153.326 65.6463L149.151 69.81C148.9 70.0572 148.603 70.2525 148.276 70.3846C147.949 70.5168 147.6 70.5831 147.247 70.5799C146.895 70.5767 146.546 70.5039 146.222 70.3658C145.898 70.2277 145.604 70.027 145.358 69.7753L141.315 65.6116C140.584 64.9246 141.196 63.8213 142.303 63.8213Z" fill="#EC8083"/>
<path d="M75.4995 63.1411L86.9405 65.4519" stroke="#12100B" stroke-width="1.15065" stroke-miterlimit="10" stroke-linecap="round"/>
<path d="M75.4995 82.0163L86.9405 78.3176" stroke="#12100B" stroke-width="1.15065" stroke-miterlimit="10" stroke-linecap="round"/>
<path d="M72.4852 71.968H86.9396" stroke="#12100B" stroke-width="1.15065" stroke-miterlimit="10" stroke-linecap="round"/>
<path d="M218.496 63.1411L207.062 65.4519" stroke="#12100B" stroke-width="1.15065" stroke-miterlimit="10" stroke-linecap="round"/>
<path d="M218.496 82.0163L207.062 78.3176" stroke="#12100B" stroke-width="1.15065" stroke-miterlimit="10" stroke-linecap="round"/>
<path d="M221.509 71.968H207.062" stroke="#12100B" stroke-width="1.15065" stroke-miterlimit="10" stroke-linecap="round"/>
<path d="M137.235 291.356C137.235 291.356 146.672 294.618 160.521 291.217C155.649 309.655 196.597 306.484 196.597 306.484C196.597 306.484 164.376 313.479 105.807 308.469L137.235 291.356Z" fill="#E2E1E2"/>
<path d="M98.0685 306.817C103.152 307.141 108.25 307.173 113.337 306.914C118.396 306.602 123.491 306.095 128.188 304.59C130.465 303.939 132.581 302.824 134.403 301.314C135.2 300.608 135.836 299.74 136.268 298.767C136.67 297.795 136.836 296.742 136.755 295.693C136.483 293.37 135.683 291.139 134.417 289.17C133.137 287.044 131.678 285.031 130.053 283.154C128.425 281.246 126.678 279.414 124.862 277.644L123.47 276.339L122.078 275.049L119.225 272.474L107.7 262.239L96.1408 252.031L90.3785 246.896C88.4508 245.189 86.5231 243.481 84.6163 241.754L84.679 241.677C93.0301 247.719 101.196 253.997 109.175 260.511C113.17 263.765 117.144 267.041 121.006 270.413L123.943 272.946L125.411 274.216L126.845 275.562C128.731 277.359 130.561 279.233 132.294 281.211C134.063 283.203 135.649 285.349 137.033 287.623C138.557 289.999 139.51 292.695 139.817 295.499C139.938 297.02 139.7 298.548 139.121 299.961C138.518 301.352 137.61 302.59 136.463 303.583C134.297 305.354 131.785 306.654 129.086 307.4C126.536 308.156 123.926 308.695 121.285 309.01C118.687 309.343 116.074 309.535 113.455 309.586C108.247 309.709 103.036 309.477 97.8597 308.892L98.0685 306.817Z" fill="#12100B"/>
<path d="M159.391 290.697C159.391 290.697 236.958 301.286 271.434 239.804C271.434 239.804 268.011 257.277 254.245 274.292C244.293 286.596 227.243 298.157 205.927 303.937C151.402 316.72 159.391 290.697 159.391 290.697Z" fill="#E2E1E2"/>
<path d="M200.184 307.199C195.02 307.811 189.821 308.071 184.623 307.976C182.008 307.934 179.396 307.753 176.8 307.435C174.162 307.131 171.555 306.604 169.006 305.859C166.306 305.126 163.793 303.828 161.636 302.05C160.48 301.056 159.579 299.8 159.01 298.387C158.441 296.974 158.22 295.446 158.365 293.931C158.497 292.501 158.837 291.099 159.375 289.767C159.881 288.496 160.491 287.268 161.198 286.096C162.597 283.839 164.189 281.708 165.958 279.726C167.691 277.748 169.521 275.888 171.407 274.098C171.873 273.647 172.36 273.189 172.841 272.759L174.302 271.489L177.232 268.963C181.129 265.597 185.096 262.329 189.063 259.081C197.052 252.604 205.203 246.338 213.517 240.282L213.58 240.359C211.673 242.087 209.752 243.787 207.832 245.494L202.076 250.615L190.538 260.809C186.683 264.196 182.848 267.6 179.034 271.024L176.188 273.591C175.235 274.445 174.295 275.299 173.404 276.18C171.595 277.949 169.841 279.767 168.213 281.676C166.583 283.544 165.116 285.547 163.828 287.664C162.555 289.625 161.735 291.844 161.428 294.16C161.331 295.204 161.479 296.256 161.859 297.234C162.275 298.204 162.897 299.073 163.682 299.781C165.494 301.289 167.605 302.401 169.876 303.042C174.567 304.52 179.619 305.006 184.699 305.29C189.781 305.526 194.872 305.471 199.947 305.124L200.184 307.199Z" fill="#12100B"/>
<path d="M90.1338 270.337C98.2691 274.334 103.433 285.173 102.034 288.004C100.788 290.53 88.8672 293.362 80.7319 289.392C72.5965 285.423 69.9868 278.817 72.5826 273.564C75.1784 268.311 82.0054 266.34 90.1338 270.337Z" fill="white"/>
<path d="M90.1865 270.24C93.3787 271.88 96.2292 274.11 98.5863 276.811C99.7836 278.183 100.805 279.699 101.627 281.322C102.044 282.145 102.391 283.002 102.664 283.883C102.968 284.806 103.126 285.77 103.131 286.742C103.169 287.32 103.035 287.897 102.745 288.4C102.456 288.902 102.023 289.308 101.502 289.566C100.678 290.025 99.799 290.377 98.8855 290.614C97.1435 291.071 95.3643 291.373 93.5687 291.516C89.9943 291.895 86.3811 291.661 82.8862 290.822C81.1199 290.339 79.429 289.616 77.8617 288.671C76.2589 287.726 74.8166 286.534 73.5887 285.139C72.3068 283.699 71.3693 281.989 70.8468 280.135C70.3415 278.221 70.4155 276.201 71.0594 274.329C71.7034 272.457 72.8885 270.817 74.4656 269.615C74.8598 269.329 75.2687 269.062 75.6904 268.817C76.1358 268.63 76.5603 268.394 77.0196 268.248C77.4713 268.08 77.9371 267.952 78.4115 267.867L79.1074 267.735L79.8033 267.672C81.6347 267.554 83.4725 267.761 85.2315 268.283C86.9367 268.792 88.5945 269.446 90.1865 270.24ZM90.0961 270.427C88.5177 269.66 86.8337 269.132 85.0993 268.859C83.4073 268.593 81.6798 268.657 80.0121 269.046C78.4304 269.413 76.9603 270.153 75.7252 271.204C74.5366 272.225 73.6494 273.549 73.1589 275.035C72.6685 276.52 72.5933 278.111 72.9415 279.636C73.3352 281.196 74.0642 282.652 75.078 283.904C76.1362 285.197 77.3707 286.337 78.7455 287.29C80.1231 288.296 81.6217 289.126 83.2064 289.76C86.4864 290.959 90.0125 291.331 93.4713 290.843C95.192 290.627 96.8766 290.186 98.4819 289.531C99.2516 289.226 99.9808 288.827 100.653 288.345C100.909 288.163 101.121 287.926 101.273 287.651C101.366 287.357 101.397 287.048 101.363 286.742C101.149 285.125 100.664 283.556 99.9294 282.099C99.2249 280.543 98.411 279.038 97.4937 277.596C95.6912 274.709 93.2695 272.002 90.0961 270.427Z" fill="#12100B"/>
<path d="M213.165 267.533C206.734 271.974 203.714 281.877 205.266 284.111C206.658 286.103 217.18 287.019 223.61 282.578C230.041 278.136 231.426 272.169 228.544 268.047C225.663 263.925 219.595 263.099 213.165 267.533Z" fill="white"/>
<path d="M213.225 267.623C210.706 269.337 209.049 272.002 207.873 274.715C207.292 276.069 206.804 277.46 206.412 278.879C205.981 280.199 205.765 281.579 205.771 282.966C205.855 283.66 205.89 283.778 206.509 284.16C207.133 284.488 207.794 284.74 208.479 284.909C209.927 285.278 211.417 285.454 212.912 285.43C215.917 285.412 218.869 284.636 221.492 283.174C222.763 282.432 223.933 281.529 224.972 280.489C226.01 279.508 226.905 278.387 227.63 277.158C228.321 275.977 228.748 274.661 228.883 273.3C228.979 271.991 228.722 270.68 228.138 269.504C227.516 268.304 226.594 267.284 225.462 266.543C224.33 265.801 223.025 265.363 221.673 265.271C220.21 265.13 218.732 265.273 217.324 265.694C215.866 266.122 214.483 266.773 213.225 267.623ZM213.106 267.45C214.365 266.57 215.697 265.799 217.087 265.146C218.523 264.46 220.068 264.03 221.652 263.876L222.265 263.834H222.877C223.296 263.843 223.713 263.889 224.123 263.973C224.533 264.036 224.937 264.181 225.348 264.286C225.748 264.44 226.139 264.618 226.517 264.82C228.044 265.652 229.287 266.919 230.089 268.459C230.891 269.999 231.215 271.742 231.02 273.466C230.801 275.133 230.209 276.73 229.287 278.137C228.406 279.49 227.313 280.694 226.051 281.703C224.822 282.706 223.458 283.533 222 284.16C219.11 285.284 216.053 285.926 212.953 286.061C211.4 286.172 209.84 286.151 208.291 285.999C207.472 285.918 206.667 285.731 205.897 285.444C205.413 285.27 204.984 284.974 204.651 284.583C204.343 284.177 204.144 283.699 204.073 283.195C203.94 282.356 203.94 281.502 204.073 280.662C204.191 279.868 204.377 279.086 204.63 278.324C205.141 276.829 205.843 275.407 206.718 274.091C208.422 271.506 210.587 269.255 213.106 267.45Z" fill="#12100B"/>
<path d="M133.897 47.8955C133.899 50.9949 132.978 54.025 131.252 56.6027C129.527 59.1804 127.073 61.1898 124.202 62.3768C121.33 63.5639 118.171 63.8752 115.122 63.2713C112.073 62.6675 109.273 61.1757 107.074 58.9847C104.876 56.7936 103.379 54.0016 102.772 50.9619C102.165 47.9222 102.476 44.7713 103.665 41.9078C104.854 39.0442 106.868 36.5967 109.452 34.8746C112.037 33.1526 115.075 32.2334 118.183 32.2334C122.35 32.2334 126.346 33.8833 129.292 36.8203C132.239 39.7573 133.895 43.7411 133.897 47.8955Z" fill="#12100B"/>
<path d="M124.945 39.9847C126.183 43.8569 123.086 48.312 117.985 49.9219C112.884 51.5318 107.804 49.7068 106.558 45.8277C105.312 41.9486 108.43 37.5004 113.517 35.8975C118.605 34.2945 123.706 36.1126 124.945 39.9847Z" fill="white"/>
<path d="M119.134 57.2425C119.022 58.5541 117.568 59.5048 115.891 59.3244C114.213 59.1439 112.94 58.0059 113.058 56.7013C113.177 55.3967 114.624 54.439 116.301 54.5778C117.978 54.7166 119.252 55.931 119.134 57.2425Z" fill="white"/>
<path d="M125.266 54.5433C125.446 54.7685 125.552 55.0441 125.568 55.3318C125.584 55.6195 125.51 55.9051 125.355 56.1489C125.201 56.3926 124.975 56.5825 124.708 56.6922C124.441 56.8019 124.146 56.8259 123.864 56.761C123.583 56.696 123.328 56.5453 123.137 56.3297C122.945 56.1141 122.825 55.8443 122.794 55.5579C122.763 55.2714 122.822 54.9824 122.963 54.7309C123.105 54.4795 123.321 54.2781 123.582 54.1547C123.858 53.9878 124.189 53.935 124.503 54.0076C124.818 54.0802 125.091 54.2724 125.266 54.5433Z" fill="white"/>
<path d="M192.134 47.8955C192.136 50.9952 191.215 54.0256 189.489 56.6034C187.763 59.1813 185.308 61.1907 182.437 62.3775C179.565 63.5643 176.405 63.8752 173.356 63.2708C170.307 62.6665 167.507 61.174 165.309 58.9822C163.111 56.7904 161.614 53.9978 161.008 50.9577C160.402 47.9175 160.713 44.7664 161.904 41.903C163.094 39.0395 165.109 36.5924 167.694 34.8712C170.279 33.15 173.319 32.232 176.427 32.2334C180.592 32.2352 184.586 33.8859 187.532 36.8228C190.477 39.7596 192.132 43.7423 192.134 47.8955Z" fill="#12100B"/>
<path d="M183.178 39.9847C184.417 43.8569 181.32 48.312 176.219 49.9219C171.118 51.5318 166.038 49.7068 164.799 45.8277C163.56 41.9486 166.664 37.5004 171.758 35.8975C176.852 34.2945 181.946 36.1126 183.178 39.9847Z" fill="white"/>
<path d="M177.37 57.2425C177.258 58.5541 175.797 59.5048 174.127 59.3244C172.456 59.1439 171.183 58.0059 171.294 56.7013C171.406 55.3967 172.86 54.439 174.537 54.5778C176.214 54.7166 177.481 55.931 177.37 57.2425Z" fill="white"/>
<path d="M183.48 54.5433C183.66 54.7685 183.766 55.0441 183.782 55.3318C183.798 55.6195 183.724 55.9051 183.57 56.1488C183.415 56.3926 183.189 56.5825 182.922 56.6922C182.655 56.8019 182.36 56.8259 182.078 56.7609C181.797 56.696 181.542 56.5452 181.351 56.3296C181.159 56.1141 181.039 55.8443 181.008 55.5578C180.977 55.2713 181.036 54.9823 181.178 54.7309C181.319 54.4795 181.535 54.2781 181.796 54.1546C182.073 53.9895 182.403 53.9378 182.717 54.0103C183.031 54.0827 183.304 54.2738 183.48 54.5433Z" fill="white"/>
<path d="M160.71 90.0244C160.71 96.9152 154.545 90.0244 146.792 90.0244C139.039 90.0244 132.874 96.9152 132.874 90.0244C132.874 83.1336 139.039 77.6584 146.792 77.6584C154.545 77.6584 160.71 83.1336 160.71 90.0244Z" fill="#12100B"/>
<path d="M146.791 84.8613C141.69 84.8613 138.816 87.6371 138.022 89.0596C140.416 91.5856 140.91 88.22 146.791 88.22C152.358 88.22 153.959 91.5856 155.553 89.0596C154.759 87.6579 151.892 84.8613 146.791 84.8613Z" fill="#EC8083"/>
<path d="M116.093 26.0781C116.093 26.0781 105.452 28.1044 100.386 35.3075L116.093 26.0781Z" fill="white"/>
<path d="M116.093 26.0781C116.093 26.0781 105.452 28.1044 100.386 35.3075" stroke="#12100B" stroke-width="1.15065" stroke-miterlimit="10" stroke-linecap="round"/>
<path d="M179.377 26.0781C179.377 26.0781 190.017 28.1044 195.091 35.3075L179.377 26.0781Z" fill="white"/>
<path d="M179.377 26.0781C179.377 26.0781 190.017 28.1044 195.091 35.3075" stroke="#12100B" stroke-width="1.15065" stroke-miterlimit="10" stroke-linecap="round"/>
</g>
<defs>
<clipPath id="clip0_1641_1070">
<rect width="294" height="313" fill="white"/>
</clipPath>
</defs>
</svg>
